<svg width="26" height="27" xmlns="http://www.w3.org/2000/svg" xmlns:xlink="http://www.w3.org/1999/xlink" overflow="hidden"><defs><clipPath id="clip0"><rect x="326" y="112" width="26" height="27"/></clipPath></defs><g clip-path="url(#clip0)" transform="translate(-326 -112)"><path d="M21.808 7.84794 22.2354 10.0208 22.7874 10.0208 22.2354 7.21094 8.125 10.016C8.1101 10.0189 8.11038 10.0211 8.125 10.0211L10.8769 10.0211Z" fill="#1D3C34" transform="matrix(1 0 0 1.03846 326 112)"/><path d="M18.5941 4.90398 19.4101 6.94417 19.9517 6.83583 18.8955 4.19521 4.6605 10.016C4.65346 10.0189 4.654 10.0211 4.6605 10.0211L6.07804 10.0211Z" fill="#1D3C34" transform="matrix(1 0 0 1.03846 326 112)"/><path d="M24.9199 10.8333 1.08333 10.8333 1.08333 21.6667 24.9199 21.6667ZM24.3783 21.125 1.625 21.125 1.625 11.375 24.3783 11.375Z" fill="#1D3C34" transform="matrix(1 0 0 1.03846 326 112)"/><path d="M13.0016 18.6875C14.0787 18.6875 14.9516 17.5963 14.9516 16.25 14.9516 14.9037 14.0785 13.8125 13.0016 13.8125 11.9248 13.8125 11.0516 14.9037 11.0516 16.25 11.0516 17.5963 11.9245 18.6875 13.0016 18.6875ZM13.0016 14.3542C13.7784 14.3542 14.41 15.2046 14.41 16.25 14.41 17.2954 13.7781 18.1458 13.0016 18.1458 12.2251 18.1458 11.5933 17.2954 11.5933 16.25 11.5933 15.2046 12.2251 14.3542 13.0016 14.3542Z" fill="#1D3C34" transform="matrix(1 0 0 1.03846 326 112)"/><path d="M5.93612 17.2951C6.51481 17.4557 7.11409 17.1167 7.27464 16.538 7.32742 16.3477 7.32742 16.1467 7.27458 15.9564 7.175 15.5912 6.88978 15.3059 6.52465 15.2062 5.94606 15.0453 5.34655 15.3838 5.18559 15.9624 5.13251 16.1531 5.13254 16.3547 5.18565 16.5455 5.28539 16.9106 5.57085 17.1958 5.93612 17.2951ZM6.22917 15.7083C6.52833 15.7083 6.77083 15.9508 6.77083 16.25 6.77083 16.5492 6.52833 16.7917 6.22917 16.7917 5.93 16.7917 5.6875 16.5492 5.6875 16.25 5.6875 15.9508 5.93 15.7083 6.22917 15.7083Z" fill="#1D3C34" transform="matrix(1 0 0 1.03846 326 112)"/><path d="M19.9945 17.3119C20.5083 17.1922 20.8681 16.729 20.8569 16.2015L20.8569 16.2015C20.8639 15.8438 20.6776 15.5101 20.3694 15.3284 19.8557 15.0069 19.1788 15.1627 18.8573 15.6763 18.7497 15.8482 18.6919 16.0465 18.6902 16.2492 18.6903 16.8485 19.1762 17.3344 19.7756 17.3343 19.8491 17.3343 19.9225 17.3268 19.9945 17.3119ZM19.7735 15.7083C20.0727 15.7083 20.3152 15.9508 20.3152 16.25 20.3152 16.5492 20.0727 16.7917 19.7735 16.7917 19.4744 16.7917 19.2319 16.5492 19.2319 16.25 19.2319 15.9508 19.4744 15.7083 19.7735 15.7083Z" fill="#1D3C34" transform="matrix(1 0 0 1.03846 326 112)"/><path d="M22.4821 20.0417 23.2946 19.2292 23.2946 13.2708 22.4821 12.4583 3.79167 12.4583 2.70833 13.5417 2.70833 18.9583 3.79167 20.0417ZM3.25 13.7665 4.01646 13 22.2579 13 22.753 13.4951 22.753 19.0055 22.2579 19.5 4.01646 19.5 3.25 18.7346Z" fill="#1D3C34" transform="matrix(1 0 0 1.03846 326 112)"/></g></svg>